<svg xmlns="http://www.w3.org/2000/svg" width="1200" height="1200">
<g fill="#e6e6e9" class="" fill-opacity="1">
<path d="M268.7442400108061,73.96936939764879 q32.09397826619773,0 56.164461965845994,14.927895733895662 t24.07048369964829,34.83175671242319 l0,952.5419182581038 q0,19.90386097852754 -24.07048369964829,34.83175671242319 t-56.164461965845994,14.927895733895662 l-174.22445344507327,0 q-32.09397826619773,0 -56.164461965845994,-14.927895733895662 t-24.07048369964829,-34.83175671242319 l0,-952.5419182581038 q0,-19.90386097852754 24.07048369964829,-34.83175671242319 t56.164461965845994,-14.927895733895662 l174.22445344507327,0 zM1105.4801019509594,922.7268696962881 q34.38640528521183,0 57.31067547535305,14.927895733895662 t22.924270190141222,34.83175671242319 l0,103.78441795946505 q0,19.90386097852754 -22.924270190141222,34.83175671242319 t-57.31067547535305,14.927895733895662 l-534.1354954302905,0 q-34.38640528521183,0 -57.31067547535305,-14.927895733895662 t-22.924270190141222,-34.83175671242319 l0,-103.78441795946505 q0,-19.90386097852754 22.924270190141222,-34.83175671242319 t57.31067547535305,-14.927895733895662 l534.1354954302905,0 z" stroke-width="0" id="svg_2" fill="#e6e6e9" fill-opacity="1"/>
<path d="M847.8061789322489,898.3110220666825 c-80.38193902768093,0 -153.95184932420247,-17.633907874500284 -219.3473251433328,-52.901723623500835 c-65.39547581913027,-36.52738059717915 -117.16689417594176,-85.65040967614422 -153.95184932420247,-147.3690872368952 s-55.85863559550712,-130.99474421057354 -55.85863559550712,-207.82819994946755 c0,-74.31432604253688 19.073680447246325,-143.59039269235942 57.221041341739,-205.30907025311038 c38.14736089449266,-60.4591127125724 91.28118499753597,-109.58214179153745 156.67666081666619,-144.84995754053796 c66.75788156536215,-35.26781574900057 141.69019760811557,-52.901723623500835 220.7097308895646,-52.901723623500835 c59.94585283420273,0 118.5292999221736,12.5956484817859 175.75034126391262,35.26781574900057 c57.221041341739,23.931732115393242 106.26764820608668,55.42085331985804 147.13982059304308,95.72692846157295 c5.449622984927526,6.297824240892954 5.449622984927526,15.1147781781431 0,21.412602419036077 l-129.4285458920286,98.24605815793014 c-4.087217238695661,3.77869454453579 -8.174434477391305,6.297824240892954 -13.62405746231879,6.297824240892954 s-10.899245969855055,-2.519129696357186 -13.62405746231879,-6.297824240892954 c-69.48269305782588,-78.09302058707266 -181.19996424884008,-94.46736361339435 -275.20596073883985,-40.306075141714935 c-81.74434477391281,46.60389938260789 -111.71727119101423,132.25430905875209 -107.63005395231856,217.90471873489625 c4.087217238695661,86.90997452432279 72.20750455028968,161.22430056685968 162.12628380159373,186.41559753043154 c81.74434477391281,22.672167267214647 162.12628380159373,5.038259392714373 220.7097308895646,-52.901723623500835 c4.087217238695661,-2.519129696357186 8.174434477391305,-5.038259392714373 13.62405746231879,-3.77869454453579 c5.449622984927526,0 9.536840223623187,1.259564848178598 12.261651716086932,5.038259392714373 l132.1533573844924,85.65040967614422 c5.449622984927526,6.297824240892954 5.449622984927526,15.1147781781431 0,21.412602419036077 c-43.596983879420165,42.82520483807212 -95.3684022362316,78.09302058707266 -152.5894435779706,103.28431755064449 c-58.58344708797088,25.191296963571826 -118.5292999221736,37.78694544535775 -177.11274701014452,37.78694544535775 z" stroke-width="0" id="svg_3" class="" fill="#e6e6e9" fill-opacity="1"/>
</g>
</svg>